#!OML:ASF F:\VICON\USERDATA\INSTALL\SteveWalk\SteveWalk.ASF
:FULLY-SPECIFIED
:DEGREES
247
root -0.107776 16.136 7.94068 16.4704 2.33468 -1.74443
lowerback -14.0357 -1.21318 5.1885
upperback -4.6696 -2.43495 3.26887
thorax 2.85847 -1.21021 0.105507
lowerneck -5.44573 1.50038 1.24206
upperneck 6.36646 2.25985 -4.82467
head 3.08888 0.977168 -1.69551
rclavicle -4.27387e-015 -2.38542e-015
rhumerus -93.3343 -39.0406 3.74282
rradius 11.3362
rwrist 58.5358
rhand -13.5898 -34.5256
rfingers 7.12502
rthumb 12.5246 -64.1302
lclavicle -4.27387e-015 -2.38542e-015
lhumerus -27.0781 -0.916679 84.2549
lradius 58.5903
lwrist 17.2811
lhand -24.8473 -18.4374
lfingers 7.12502
lthumb 1.65901 11.5359
rfemur -45.398 -1.49684 25.1977
rtibia 39.4537
rfoot -11.6195 5.06796
rtoes -12.1266
lfemur -14.8879 -0.00614264 -18.4199
ltibia 61.0458
lfoot 18.0673 -7.76467
ltoes -14.2361
248
root -0.117331 16.1469 8.15277 16.469 2.50162 -1.68701
lowerback -14.0527 -1.1969 4.9782
upperback -4.75415 -2.38099 3.27438
thorax 2.79012 -1.18488 0.238188
lowerneck -5.42914 1.43835 1.0669
upperneck 6.70306 2.18484 -4.56137
head 3.18966 0.941062 -1.58252
rclavicle 1.57413e-014 -3.18055e-014
rhumerus -91.4958 -39.8259 0.741034
rradius 11.3615
rwrist 56.9412
rhand -13.307 -34.7298
rfingers 7.12502
rthumb 12.7972 -64.3176
lclavicle 1.57413e-014 -3.18055e-014
lhumerus -27.7784 -0.944086 84.6922
lradius 57.4651
lwrist 16.8098
lhand -24.3759 -18.2417
lfingers 7.12502
lthumb 2.11433 11.7276
rfemur -44.6416 -1.621 25.2292
rtibia 39.6506
rfoot -12.6547 4.60062
rtoes -13.5186
lfemur -16.3743 0.116969 -18.3817
ltibia 63.4779
lfoot 16.2426 -7.37496
ltoes -15.8454
249
root -0.130315 16.1748 8.36675 16.4996 2.3892 -1.65686
lowerback -14.0262 -1.0544 4.74856
upperback -4.81839 -2.15499 3.24293
thorax 2.72309 -1.0739 0.370923
lowerneck -5.39701 1.36822 1.03301
upperneck 6.83787 2.09086 -4.45885
head 3.22407 0.89614 -1.54769
rclavicle -1.08089e-014 2.38542e-015
rhumerus -88.8871 -40.7523 -3.50975
rradius 11.4102
rwrist 54.7053
rhand -12.7168 -36.229
rfingers 7.12502
rthumb 13.3662 -65.7803
lclavicle -1.08089e-014 2.38542e-015
lhumerus -28.2224 -0.857287 85.1233
lradius 56.0689
lwrist 16.0559
lhand -23.8202 -18.0244
lfingers 7.12502
lthumb 2.651 11.9388
rfemur -43.8446 -1.37377 25.1883
rtibia 39.7497
rfoot -13.4898 4.10733
rtoes -13.6636
lfemur -18.2073 0.549362 -18.3695
ltibia 65.6987
lfoot 14.5654 -6.47711
ltoes -14.7551
250
root -0.145118 16.2051 8.57949 16.5463 1.96663 -1.71364
lowerback -14.187 -0.810263 4.45474
upperback -4.68363 -1.81265 3.2579
thorax 2.97125 -0.897281 0.600922
lowerneck -5.45664 1.23792 1.01365
upperneck 6.74562 1.91624 -4.48404
head 3.19836 0.808504 -1.55979
rclavicle -2.90971e-014 2.54444e-014
rhumerus -89.0407 -42.3272 -3.00111
rradius 11.363
rwrist 55.1594
rhand -12.2858 -36.8667
rfingers 7.12502
rthumb 13.7816 -66.3902
lclavicle -2.90971e-014 2.54444e-014
lhumerus -28.3106 -0.835832 85.6026
lradius 54.6093
lwrist 15.5021
lhand -23.4842 -17.7681
lfingers 7.12502
lthumb 2.97548 12.1909
rfemur -43.0343 -0.817034 25.1772
rtibia 39.7909
rfoot -14.2307 3.74194
rtoes -13.3281
lfemur -19.9803 1.26834 -18.3392
ltibia 67.6925
lfoot 12.5031 -5.54125
ltoes -13.1703
251
root -0.153658 16.2372 8.79033 16.6917 1.85709 -1.73626
lowerback -14.4026 -0.651459 4.26808
upperback -4.6909 -1.59034 3.23804
thorax 3.08929 -0.784596 0.71802
lowerneck -5.45215 1.06989 0.889489
upperneck 6.94999 1.69778 -4.34068
head 3.25637 0.699785 -1.50158
rclavicle 2.53326e-014 -2.38542e-015
rhumerus -87.7035 -43.5877 -4.81408
rradius 11.536
rwrist 53.8875
rhand -13.005 -37.1889
rfingers 7.12502
rthumb 13.0884 -66.7582
lclavicle 2.53326e-014 -2.38542e-015
lhumerus -28.7645 -0.856428 86.0372
lradius 53.3068
lwrist 14.9852
lhand -23.0629 -17.3309
lfingers 7.12502
lthumb 3.38237 12.622
rfemur -42.1977 -0.717015 25.2172
rtibia 39.6793
rfoot -15.202 3.55136
rtoes -13.7125
lfemur -21.9449 1.65366 -18.3324
ltibia 69.5345
lfoot 10.3963 -4.72618
ltoes -10.8539
252
root -0.165818 16.2629 8.99203 16.8726 2.04832 -1.67687
lowerback -14.4452 -0.636458 4.07275
upperback -4.86166 -1.53337 3.1634
thorax 2.93704 -0.759534 0.759655
lowerneck -5.26911 0.991407 0.852513
upperneck 7.15352 1.58791 -4.15883
head 3.28432 0.650906 -1.44104
rclavicle 5.75233e-015 4.77083e-015
rhumerus -85.9857 -44.5585 -7.28735
rradius 11.461
rwrist 53.422
rhand -14.3603 -36.5915
rfingers 7.12502
rthumb 11.7817 -66.2401
lclavicle 5.75233e-015 4.77083e-015
lhumerus -29.4303 -0.557041 86.1903
lradius 50.9601
lwrist 13.5177
lhand -21.5397 -19.2556
lfingers 7.12502
lthumb 4.85324 10.6689
rfemur -41.3788 -0.796905 25.199
rtibia 39.5064
rfoot -16.2579 3.21391
rtoes -15.4347
lfemur -24.0733 1.79071 -18.3213
ltibia 71.1807
lfoot 9.03151 -4.19989
ltoes -6.6903
253
root -0.182181 16.2936 9.19271 16.952 2.09934 -1.64386
lowerback -14.4389 -0.635443 3.78252
upperback -4.98453 -1.48386 3.1383
thorax 2.81271 -0.736444 0.905585
lowerneck -5.08654 0.987712 0.903455
upperneck 7.34799 1.58051 -4.10242
head 3.31582 0.650656 -1.43314
rclavicle -3.78933e-015 -3.18055e-015
rhumerus -84.238 -45.5894 -9.49882
rradius 11.2178
rwrist 53.5386
rhand -14.9371 -36.016
rfingers 7.12502
rthumb 11.2254 -65.6957
lclavicle -3.78933e-015 -3.18055e-015
lhumerus -30.1677 -0.178397 86.3622
lradius 49.4792
lwrist 12.4702
lhand -21.5388 -18.4538
lfingers 7.12502
lthumb 4.85409 11.4706
rfemur -40.4389 -0.679931 25.2152
rtibia 39.2272
rfoot -17.1104 2.7523
rtoes -17.1898
lfemur -26.1656 2.04649 -18.2593
ltibia 72.5234
lfoot 8.44271 -3.39799
ltoes 0.341761
254
root -0.185554 16.3306 9.39413 16.8972 2.29593 -1.51739
lowerback -14.3139 -0.666535 3.5588
upperback -5.09654 -1.47832 3.07553
thorax 2.63244 -0.735716 0.96894
lowerneck -5.07774 0.920757 0.867482
upperneck 7.81249 1.49923 -3.9778
head 3.47019 0.609183 -1.39297
rclavicle 2.25496e-014 -3.49861e-014
rhumerus -80.8605 -46.2413 -13.8951
rradius 11.2008
rwrist 51.6558
rhand -15.1366 -35.8675
rfingers 7.12502
rthumb 11.033 -65.5575
lclavicle 2.25496e-014 -3.49861e-014
lhumerus -30.8764 0.20209 86.5344
lradius 47.3384
lwrist 11.563
lhand -21.4374 -19.2514
lfingers 7.12502
lthumb 4.95201 10.6708
rfemur -39.3996 -0.867197 25.149
rtibia 39.0343
rfoot -17.9045 2.45675
rtoes -17.0691
lfemur -27.9602 2.05394 -18.3776
ltibia 73.5336
lfoot 7.45303 -2.38354
ltoes 3.17848
255
root -0.171081 16.3758 9.59299 16.965 2.95437 -1.59865
lowerback -14.4411 -0.726468 3.91412
upperback -5.12194 -1.60817 3.00801
thorax 2.66002 -0.801806 0.676061
lowerneck -5.05458 0.754047 0.686135
upperneck 8.00451 1.27742 -3.75251
head 3.5207 0.500993 -1.29746
rclavicle -1.72197e-014 7.15625e-015
rhumerus -78.3892 -47.363 -16.8395
rradius 11.1166
rwrist 50.9614
rhand -15.7315 -35.1241
rfingers 7.12502
rthumb 10.4591 -64.8439
lclavicle -1.72197e-014 7.15625e-015
lhumerus -31.3688 0.481307 86.6988
lradius 45.4817
lwrist 11.2204
lhand -21.525 -19.4488
lfingers 7.12502
lthumb 4.86739 10.4753
rfemur -38.452 -1.52692 25.3218
rtibia 38.7785
rfoot -18.5781 2.72555
rtoes -15.4263
lfemur -29.4183 1.73538 -18.3179
ltibia 74.0706
lfoot 5.71221 -1.64835
ltoes 0.719616
